<?xml version="1.0" encoding="UTF-8"?>
<svg xmlns="http://www.w3.org/2000/svg" style="display:none;">
  <symbol id="icon-instagram" viewBox="0 0 448 512">
    <path d="M224.1 141c-63.6 0-114.9 51.3-114.9 114.9S160.5 370.8 224.1 370.8 339 319.5 339 255.9 287.7 141 224.1 141zm0 188.6a73.8 73.8 0 1 1 73.8-73.8 73.9 73.9 0 0 1-73.8 73.8zM398.8 80a53.1 53.1 0 1 1-53.1-53.1 53.1 53.1 0 0 1 53.1 53.1zM448 144.1a144 144 0 0 0-40.8-102.4A144 144 0 0 0 304.8 0H143.2a144 144 0 0 0-102.4 41.7A144 144 0 0 0 0 143.2v161.6a144 144 0 0 0 41.7 102.4 144 144 0 0 0 102.4 41.7h161.6a144 144 0 0 0 102.4-41.7 144 144 0 0 0 41.7-102.4ZM400 304.8a95.2 95.2 0 0 1-27.2 67.2 95.2 95.2 0 0 1-67.2 27.2H143.2a95.2 95.2 0 0 1-67.2-27.2A95.2 95.2 0 0 1 48.8 304.8V143.2a95.2 95.2 0 0 1 27.2-67.2A95.2 95.2 0 0 1 143.2 48.8h161.6a95.2 95.2 0 0 1 67.2 27.2A95.2 95.2 0 0 1 400 143.2Z" />
  </symbol>

  <symbol id="icon-tiktok" viewBox="0 0 448 512">
    <path d="M448 209.9a210.6 210.6 0 0 1-122.6-39.3v179.3a162.7 162.7 0 1 1-140.7-161.1v95.8A68.7 68.7 0 1 0 255.1 352V0l70.3-.2a142 142 0 0 0 8.2 46.6 141.6 141.6 0 0 0 32.4 52.1 141.8 141.8 0 0 0 51.9 32.5 142.2 142.2 0 0 0 29.9 7.4Z" />
  </symbol>

  <symbol id="icon-x" viewBox="0 0 512 512">
    <path d="M512 32 352.6 241.9 518.5 480H358.1L242.2 312.6 106.4 480H0L170.4 256.6 11.3 32H176.1L284.3 189.6 403.4 32H512ZM87.3 64l270 384h67.1L154.6 64Z" />
  </symbol>

  <symbol id="icon-facebook" viewBox="0 0 320 512">
    <path d="M279.14 288l14.22-92.66h-88.91v-60.13c0-25.35 12.42-50.06 52.24-50.06h40.42V3.1C283.29 0 259.5-1.24 236.87 0.64 162.2 7.13 113.79 56.68 113.79 141V195.3H24v92.66h89.79V512h107.91V288z" />
  </symbol>
</svg>
